<svg id="Layer_1" enable-background="new 0 0 511.992 511.992" height="512" viewBox="0 0 511.992 511.992" width="512" xmlns="http://www.w3.org/2000/svg"><g><g><path d="m248.848 165.843c-3.905-3.905-10.237-3.905-14.143 0s-3.905 10.237 0 14.143c3.201 3.201 7.073 5.483 11.298 6.725v3.289c0 5.523 4.477 10 10 10s10-4.477 10-10v-5.273c2.334-1.234 4.496-2.822 6.415-4.742 10.397-10.397 10.397-27.315 0-37.713l-18.689-18.688c-1.259-1.259-1.952-2.933-1.952-4.714s.693-3.455 1.953-4.714c1.259-1.259 2.933-1.953 4.714-1.953 1.78 0 3.455.693 4.714 1.953 3.906 3.906 10.236 3.907 14.143 0 3.905-3.905 3.905-10.237 0-14.142-3.2-3.201-7.072-5.483-11.297-6.726v-3.288c0-5.523-4.478-10-10-10s-10 4.477-10 10v5.272c-2.334 1.234-4.496 2.822-6.416 4.742-5.037 5.037-7.811 11.733-7.811 18.856 0 7.124 2.774 13.82 7.811 18.856l18.688 18.688c1.26 1.259 1.953 2.933 1.953 4.714s-.693 3.455-1.953 4.714c-2.598 2.602-6.828 2.6-9.428.001z"/><path d="m256.003 240c55.14 0 100-44.86 100-100 0-55.141-44.86-100-100-100s-100 44.86-100 100c0 55.141 44.86 100 100 100zm0-180c44.113 0 80 35.888 80 80s-35.888 80-80 80-80-35.888-80-80 35.888-80 80-80z"/><path d="m369.599 351.87h-13.597v-113.998c24.728-25.261 40-59.814 40-97.872 0-77.196-62.804-140-140-140-20.453 0-40.18 4.322-58.635 12.845-5.014 2.316-7.201 8.258-4.886 13.271 2.315 5.014 8.258 7.201 13.271 4.886 15.809-7.3 32.715-11.002 50.251-11.002 66.167 0 120 53.832 120 120s-53.832 120-120 120-120-53.832-120-120c0-17.535 3.701-34.439 10.999-50.242 2.315-5.014.128-10.956-4.886-13.271-5.013-2.314-10.956-.128-13.271 4.886-8.521 18.451-12.842 38.176-12.842 58.627 0 38.058 15.272 72.611 40 97.872v113.998h-13.577c-11.279 0-21.027 6.863-24.833 17.484-3.786 10.565-.742 21.96 7.752 29.144l112.575 106.332c5.076 4.775 11.584 7.162 18.094 7.162 6.515 0 13.029-2.392 18.104-7.176l113.573-107.274c10.603-9.976 11.113-26.718 1.138-37.322-4.992-5.307-12-8.35-19.23-8.35zm4.374 31.119-113.58 107.28c-2.454 2.313-6.306 2.31-8.754.007l-112.782-106.527c-.167-.157-.338-.309-.516-.454-3.224-2.651-2.285-6.177-1.92-7.194.456-1.272 1.954-4.231 6.005-4.231h23.577c5.523 0 10-4.477 10-10v-107.047c22.693 15.858 50.277 25.177 80 25.177s57.307-9.318 80-25.176v107.046c0 5.523 4.478 10 10 10h23.597c1.762 0 3.418.729 4.664 2.054 2.418 2.572 2.294 6.632-.291 9.065z"/><path d="m164.079 58.077c2.401 0 4.811-.859 6.727-2.602 4.086-3.715 4.388-10.04.673-14.126-3.715-4.087-10.04-4.388-14.126-.673l-.005.005c-4.086 3.715-4.385 10.037-.67 14.124 1.972 2.171 4.681 3.272 7.401 3.272z"/></g></g></svg>