<svg id="&#x421;&#x43B;&#x43E;&#x439;_1" height="512" viewBox="0 0 128 128" width="512" xmlns="http://www.w3.org/2000/svg"><path d="m90.13 0h-52.26a9.88 9.88 0 0 0 -9.87 9.87v108.26a9.88 9.88 0 0 0 9.87 9.87h52.26a9.88 9.88 0 0 0 9.87-9.87v-108.26a9.88 9.88 0 0 0 -9.87-9.87zm-42.13 4h32v3a1.94 1.94 0 0 1 -2 2h-28a1.94 1.94 0 0 1 -2-2zm48 114.13a5.89 5.89 0 0 1 -5.87 5.87h-52.26a5.89 5.89 0 0 1 -5.87-5.87v-108.26a5.89 5.89 0 0 1 5.87-5.87h6.13v3a5.94 5.94 0 0 0 6 6h28a5.94 5.94 0 0 0 6-6v-3h6.13a5.89 5.89 0 0 1 5.87 5.87z"/><path d="m72.76 93.47-2.38-1a6 6 0 0 0 -.09-1.63 6.39 6.39 0 1 0 -9.93 6.42 6.43 6.43 0 0 0 3.64 1.14 5.76 5.76 0 0 0 1.16-.11 6.3 6.3 0 0 0 3.7-2.12l2.38 1a2.07 2.07 0 0 0 .77.15 2 2 0 0 0 .76-3.84zm-8.33.89a2.36 2.36 0 0 1 -1.79-.36 2.43 2.43 0 0 1 -1-1.55 2.36 2.36 0 0 1 .36-1.81 2.43 2.43 0 0 1 1.55-1 2.12 2.12 0 0 1 .44 0 2.4 2.4 0 0 1 2.21 3.31 3.3 3.3 0 0 1 -.23.41 2.43 2.43 0 0 1 -1.54 1z"/><path d="m81 75.05a24 24 0 1 0 7 17 23.92 23.92 0 0 0 -7-17zm-29.63 32.44 1.9-1.9a2 2 0 0 0 -2.83-2.82l-1.9 1.9a19.86 19.86 0 0 1 -4.44-10.67h2.71a2 2 0 0 0 0-4h-2.71a20 20 0 0 1 4.42-10.65l1.89 1.88a2 2 0 0 0 1.41.59 2 2 0 0 0 1.41-3.41l-1.9-1.9a19.83 19.83 0 0 1 10.67-4.41v2.67a2 2 0 1 0 4 0v-2.67a19.92 19.92 0 0 1 10.63 4.44l-1.83 1.87a2 2 0 1 0 2.83 2.82l1.86-1.86a19.89 19.89 0 0 1 4.41 10.63h-2.64a2 2 0 1 0 0 4h2.64a19.68 19.68 0 0 1 -.76 3.77l-2.46-1a2 2 0 0 0 -1.53 3.7l2.46 1a20.14 20.14 0 0 1 -2.13 3.19l-1.89-1.88a2 2 0 0 0 -2.82 2.82l1.88 1.89a20 20 0 0 1 -25.28 0z"/><path d="m88 26a6 6 0 0 0 -12 0 6.26 6.26 0 0 0 .21 1.57l-8.56 5.68a6 6 0 0 0 -9.44 6.29l-8.53 5.73a6 6 0 1 0 -5.68 10.38v4.35h-2a2 2 0 0 0 0 4h44a2 2 0 0 0 0-4h-2v-28.35a6 6 0 0 0 4-5.65zm-6-2a2 2 0 1 1 -2 2 2 2 0 0 1 2-2zm-18 12a2 2 0 1 1 -2 2 2 2 0 0 1 2-2zm-18 12a2 2 0 1 1 -2 2 2 2 0 0 1 2-2zm2 7.65a6 6 0 0 0 4-5.65 6.19 6.19 0 0 0 -.16-1.37l8.63-5.79a6.05 6.05 0 0 0 1.53.81v16.35h-14zm18 4.35v-16.35a6 6 0 0 0 4-5.65 5.9 5.9 0 0 0 -.17-1.4l8.66-5.74a6 6 0 0 0 1.51.79v28.35z"/></svg>