<?xml version="1.0"?>
<svg xmlns="http://www.w3.org/2000/svg" id="Layer_1" data-name="Layer 1" viewBox="0 0 64 64" width="512" height="512"><path d="M32,9a1,1,0,0,1-1-1V4a1,1,0,0,1,2,0V8A1,1,0,0,1,32,9Z"/><path d="M22,11.68a1,1,0,0,1-.867-.5l-2-3.464a1,1,0,1,1,1.732-1l2,3.464A1,1,0,0,1,22,11.68Z"/><path d="M14.679,19a.992.992,0,0,1-.5-.134l-3.465-2a1,1,0,0,1,1-1.732l3.465,2a1,1,0,0,1-.5,1.866Z"/><path d="M12,29H8a1,1,0,0,1,0-2h4a1,1,0,0,1,0,2Z"/><path d="M11.216,41a1,1,0,0,1-.5-1.866l3.465-2a1,1,0,1,1,1,1.732l-3.465,2A.992.992,0,0,1,11.216,41Z"/><path d="M52.784,41a.992.992,0,0,1-.5-.134l-3.465-2a1,1,0,1,1,1-1.732l3.465,2a1,1,0,0,1-.5,1.866Z"/><path d="M56,29H52a1,1,0,0,1,0-2h4a1,1,0,0,1,0,2Z"/><path d="M48,27H43a4,4,0,0,0-8,0H33V23.816a1,1,0,0,0-1.333-.942,2,2,0,1,1,0-3.748A1,1,0,0,0,33,18.184V12a1,1,0,0,0-1-1,17,17,0,0,0-7,32.485V45H24a3,3,0,0,0-3,3v2a3,3,0,0,0,3,3h1v3a5.006,5.006,0,0,0,5,5h4a5.006,5.006,0,0,0,5-5V53h1a3,3,0,0,0,3-3V48a3,3,0,0,0-3-3H39V43.485A16.925,16.925,0,0,0,49,28,1,1,0,0,0,48,27ZM31,13.033V17a4,4,0,0,0,0,8v2H27.816a1,1,0,0,0-.942,1.334,2,2,0,1,1-3.748,0A1,1,0,0,0,22.184,27H17.033A15.023,15.023,0,0,1,31,13.033ZM26.375,41.9A14.933,14.933,0,0,1,17.037,29H21a4,4,0,0,0,8,0h2v3.184a1,1,0,0,0,1.333.942,2,2,0,1,1,0,3.748A1,1,0,0,0,31,37.816V45H27V42.826A1,1,0,0,0,26.375,41.9ZM37,56a3,3,0,0,1-3,3H30a3,3,0,0,1-3-3V53h2v3a1,1,0,0,0,2,0V53h2v3a1,1,0,0,0,2,0V53h2Zm3-9a1,1,0,0,1,1,1v2a1,1,0,0,1-1,1H24a1,1,0,0,1-1-1V48a1,1,0,0,1,1-1Zm-2.375-5.1a1,1,0,0,0-.625.927V45H33V39a4,4,0,0,0,0-8V29h3.184a1,1,0,0,0,.942-1.334,2,2,0,1,1,3.748,0A1,1,0,0,0,41.816,29h5.151A14.937,14.937,0,0,1,37.625,41.9Z"/><path d="M40,3a1,1,0,0,0-1,1V9a4,4,0,0,0,0,8v3a1,1,0,0,0,1,1h4.184a1,1,0,0,0,.942-1.334,2,2,0,1,1,3.748,0A1,1,0,0,0,49.816,21H56a1,1,0,0,0,1-1A17.019,17.019,0,0,0,40,3ZM51,19a4,4,0,0,0-8,0H41V15.816a1,1,0,0,0-1.333-.942,2,2,0,1,1,0-3.748A1,1,0,0,0,41,10.184V5.033A15.023,15.023,0,0,1,54.967,19Z"/></svg>
