<?xml version="1.0" encoding="utf-8"?>
<!-- Generator: Adobe Illustrator 24.0.1, SVG Export Plug-In . SVG Version: 6.00 Build 0)  -->
<svg version="1.1" id="Camada_1" xmlns="http://www.w3.org/2000/svg" xmlns:xlink="http://www.w3.org/1999/xlink" x="0px" y="0px"
	 viewBox="0 0 1347 1339" style="enable-background:new 0 0 1347 1339;" xml:space="preserve">
<style type="text/css">
	.st0{fill:#535356;}
	.st1{fill:#F27228;}
	.st2{fill:#FEFEFE;}
	.st3{fill:#F48443;}
	.st4{fill:#FFFFFF;}
	.st5{font-family:'MyriadPro-Regular';}
	.st6{font-size:333.7188px;}
	.st7{fill:#F5F5F5;}
	.st8{fill:none;stroke:#FFFFFF;stroke-width:20;stroke-miterlimit:10;}
</style>
<g>
	<path class="st0" d="M13.2,1029.7c0-341.1,0-682.3,0-1023.4c141.2,0,282.4,0,423.6,0c284.1,0,568.2-0.1,852.3,0.2
		c21.5,0,48.1-10.8,47.9,31.4c-1.8,330.6-1.8,661.2-2.4,991.8C894.1,1029.7,453.6,1029.7,13.2,1029.7z"/>
	<path class="st1" d="M13.2,1029.7c440.5,0,880.9,0,1321.4,0c0.5,99.9,1.1,199.9,1.6,299.8c-429,0-857.9-0.4-1286.9,0.9
		c-30.8,0.1-38-6.1-37.1-37.1C14.9,1205.5,13.2,1117.6,13.2,1029.7z"/>
	<path class="st2" d="M1336.2,1329.5c-0.5-99.9-1.1-199.9-1.6-299.8c0.6-330.6,0.5-661.2,2.4-991.8c0.2-42.1-26.3-31.3-47.9-31.4
		C1005,6.2,720.9,6.3,436.8,6.3c-141.2,0-282.4,0-423.6,0C9.6-10.2,22.4-3.8,28.7-3.8c430.7-0.2,861.4,0,1292-0.9
		c22.2,0,26.5,4.3,26.5,26.5c-0.9,430.7-0.6,861.4-0.9,1292.2C1346.3,1320.3,1352.7,1333,1336.2,1329.5z"/>
	<path class="st3" d="M669.7,1184.6"/>
</g>
<text transform="matrix(1 0 0 1 372.8096 1288.5703)" class="st4 st5 st6">Petros</text>
<path class="st7" d="M459.7,542.6"/>
<g>
	<path class="st4" d="M693.8,65.5c7.2,0.6,14.3,1.3,21.5,1.8c18.7,1.1,37.2,3.9,55.5,7.6c7.2,1.4,14.3,3.3,21.5,4.8
		c1.6,0.3,3.8,0.3,4.4,1.9c0.7,2-1.9,2.6-3,3.4c-26.5,19.4-50.5,41.5-72.7,65.6c-38.2,41.4-70.8,87.1-100,135.2
		c-21.4,35.1-40.8,71.3-58.9,108.1c-14.5,29.5-28,59.6-40.7,90c-8.7,20.9-17.2,41.8-25.3,62.9c-8.7,22.8-16.9,45.9-25.3,68.9
		c-6.7,18.3-13,36.8-18.8,55.3c-0.4,1.3-1.3,2.6-1.3,2.7c0.4-11,2.4-23.1,4-35.3c2.3-17.4,5-34.7,7.4-52.1c2.4-17,5.5-33.9,8.7-50.8
		c2.9-15.2,6-30.4,9.4-45.5c3.3-14.5,6.8-28.9,10.5-43.3c6.5-25.5,14.2-50.7,22.9-75.5c10.2-29.3,22-58.1,35.3-86.2
		c14.7-31.1,31.1-61.3,49-90.7c7.9-13,16.3-25.8,24.5-38.7c0.6-1,1.8-2,0.8-3c-0.5-0.5-1.9-0.4-2.9-0.2
		c-41.1,7.4-80.2,20.4-116.9,40.5c-43.9,24-81.4,55.7-112.5,94.7c-25.5,32-45.1,67.4-58.9,106c-14.1,39.4-21,80-21.5,121.7
		c-0.2,21.4,1.7,42.7,5.1,63.9c8.1,49.5,25.8,95.3,52.7,137.5c26.7,41.8,60.6,76.7,101.3,105.1c25.1,17.5,51.9,31.6,80.5,42.4
		c16.7,6.3,33.8,11.3,51.2,15.2c28.5,6.4,57.4,9,86.6,8.5c23.9-0.4,47.7-2.9,71-8.4c3.1-0.7,4.1,0,3.9,3.4
		c-1.3,24.6-4.2,49-7.1,73.3c-0.8,7.1-2.3,8.2-10.7,9.1c-10.6,1.1-21.3,2.2-31.9,3.2c-1.1,0.1-72.6-0.6-74.2-0.8
		c-8.1-1-16.3-1.4-24.4-2.8c-20-3.5-39.9-7.5-59.5-13.3c-18.2-5.4-36.2-11.5-53.5-19.2c-44-19.5-84.2-45-120.3-77
		c-31.7-28.1-59-59.8-81.7-95.4c-25.8-40.3-44.6-83.7-56.5-130.2c-6.6-26-11.2-52.3-12.9-78.9c-2.4-38.3-1.1-76.6,6-114.4
		c4.9-26.2,12.1-51.9,21.3-76.9c16.5-44.6,39.8-85.4,69.2-122.7c23.8-30.3,51.3-57,82.1-80.1c32.8-24.6,68.3-44.7,106.6-59.7
		c22.2-8.7,44.9-15.8,68-20.9c20.8-4.6,42-8,63.4-9c4.6-0.2,9.3,0,13.8-1.7C671.8,65.5,682.8,65.5,693.8,65.5z"/>
	<path class="st4" d="M719.6,261.6c7.6,7.7,13.1,16.3,18.8,24.6c44.5,64.2,78.7,133.7,106.5,206.4c28.8,75.1,50.5,152.4,67.9,230.8
		c4.9,22,9.3,44.2,13.9,66.3c0.6,3.1,1.3,3.8,3.9,1.4c35.2-32.5,63.4-70.1,84.2-113.3c16.8-34.9,27.8-71.6,33-110.1
		c7.6-56.5,2.6-111.8-15.2-165.9c-20.9-63.4-56.6-117.2-106.5-161.5c-33.7-30-71.8-52.9-114-68.9c-1.5-0.6-3-1.2-5-2
		c8.4-9.3,17.3-17.6,26.3-25.9c12-11.2,24.6-21.7,37.5-31.8c2.4-1.9,4.2-2.2,7.1-0.8c44.1,21.5,84.2,48.8,119.3,83.1
		c45.3,44.1,79.3,95.6,102.3,154.5c23.3,59.6,33.3,121.5,30.9,185.3c-2.4,64.9-17.5,126.7-45.8,185.2
		c-26,53.7-61.3,100.4-106.2,139.7c-36.6,32-77.5,57.1-122.4,75.6c-7.9,3.3-15.9,6.2-23.8,9.2c-0.3,0.1-0.6,0-0.1,0
		C852.7,706.8,818.4,479.3,719.6,261.6z"/>
</g>
<path class="st8" d="M253.8,1197.5c0,108.9-124.9,108.9-124.9,0c12.8-57.6,64-115.3,64-115.3S247.4,1152.7,253.8,1197.5z"/>
</svg>
