<?xml version="1.0" encoding="utf-8"?>
<!-- Generator: Adobe Illustrator 24.0.1, SVG Export Plug-In . SVG Version: 6.00 Build 0)  -->
<svg version="1.1" id="Camada_1" xmlns="http://www.w3.org/2000/svg" xmlns:xlink="http://www.w3.org/1999/xlink" x="0px" y="0px"
	 viewBox="0 0 2899 1202" style="enable-background:new 0 0 2899 1202;" xml:space="preserve">
<style type="text/css">
	.st0{fill:#5754A7;}
	.st1{fill:#FEFEFF;}
	.st2{fill:#FDFDFD;}
</style>
<g>
	<g>
		<path class="st0" d="M1450.4,1200.9c-259.3,0-518.7,0-778,0c-14.7,0-29.5,0.7-44.2,0.8c-79.8,0.9-156.8-13.6-231-41.7
			c-61.8-23.4-118.2-55.7-169.1-96.7c-91.4-73.7-156-165.1-193.5-274.1C21.8,752,13.3,714,8.3,675.1c-4.5-34.4-5.6-69-3.7-103.5
			c3.7-69.6,19.3-136.7,47.5-201c34.5-78.8,84.2-147.5,149-205.9c66.1-59.6,142.1-103.3,228-130.9C471.7,20.1,515.2,11,559.8,6.4
			c17.4-1.8,34.8-2.6,52.2-3c120.6-2.8,241.3-1.1,361.9-1.1c432.9-0.3,865.8-0.1,1298.7-0.1c108.4,0,210.2,25.2,304.5,76.8
			c115.7,63.3,202,153.2,258.9,269.1c27.4,55.8,44.7,114.6,53.1,175.8c4.9,36,6.3,72.2,4.4,108.4c-4.1,75.2-22,147.3-54.3,216
			c-33.9,72.1-80.7,135.4-140.5,189.5c-81.3,73.4-176.1,123-284.9,147.4c-32.6,7.3-65.5,12-99,14.2c-16,1-31.9,1.4-47.9,1.4
			C1994.6,1200.9,1722.5,1200.9,1450.4,1200.9z M627.2,228.9c-1.7,3.8-1.2,6.4-1.2,9c0,18.9,0,37.9,0,56.8c0,8.3,0.6,7.7-7.8,8
			c-16,0.5-31.9,1.9-47.6,4.7c-73.4,13.5-134.7,47.3-183,102.3c-42.7,48.7-66.4,105.2-71.9,168.6c-2.2,25.5-1,51.1,3.8,76.4
			c13.2,69.4,47.2,127.5,102.3,173.8c51,42.8,110.6,66.9,178.2,72.4c35.4,2.9,70.2,0.2,104.4-8.6c53.9-13.7,101.1-39.1,140.2-77.5
			c74.1-72.6,103.2-160,88-260.4c-8.8-58.2-35.4-108.9-76.2-152.6c-0.7-0.7-1.4-1.4-1.9-2.1c-1.8-2.3-3.6-3-6.1-0.8
			c-0.9,0.8-2,1.4-2.9,2.1c-27.9,20.2-55.8,40.4-83.6,60.7c-1.3,0.9-3,1.6-3.7,4.8c1.5,1.2,3.9,2.6,5.7,4.4
			c43.5,43.7,62.1,95.8,54.4,155.9c-6.5,50.9-31.8,92.1-73.6,123.5c-43.2,32.6-92.8,44.6-146.9,37.6c-40.3-5.2-75.7-21.6-105-49
			c-51.7-48.2-71.9-107.2-57.1-174.6c15.8-72.2,62.9-119.3,135.9-141.8c15.8-4.9,32.2-6.5,48.6-7.4c5-0.3,5.4,0.2,5.6,5
			c0.1,1.4,0,2.8,0,4.3c0,19.2,0,38.4,0,57.5c0,2.2-0.9,4.6,1.2,6.5c11.6-6.7,175-125.9,178.3-130.2
			C746.3,315.3,687.1,272.3,627.2,228.9z M1230.7,560.1c16.6-2.8,31.2-6.6,44.9-13.4c18.8-9.4,32.9-23.1,40.8-42.2
			c6.5-15.7,8.1-32,6.6-48.8c-2.6-29.9-16.6-53.1-42.9-69.1c-22.4-13.6-47.5-19.1-73.6-20.2c-41.9-1.7-83.4,1.3-124.7,8.5
			c-8.4,1.5-8.5,1.4-8.3,9.7c0.8,45.2,1.8,90.4,2.4,135.6c0.5,34.8,0.5,69.6,0.8,104.4c0.2,26.8,0.5,53.5,0.8,80.3
			c0.1,6.3,0.1,6.4,6.4,6.7c13,0.6,26,0.5,39-1.6c6.7-1.1,6.7-1.1,6.8-7.6c0-21.8,0-43.6,0-65.3c0-21.3,0-42.6,0-63.9
			c0-6.1,0.1-6.2,6.5-6.2c10.6,0,21.2,0.3,31.7-0.1c5.6-0.2,8.9,1.6,12.2,5.9c34.6,44.8,69.4,89.5,104,134.3c3,3.9,6.1,5.2,11,5.1
			c14.6-0.4,28.8-2.8,42.8-6.5c2.7-0.7,5.7-1,8-3.5C1307.7,654.9,1269.6,607.9,1230.7,560.1z M1391.9,543.6c0,28.9,0,57.8,0,86.7
			c0,24.6,0.2,49.3,0.4,73.9c0,5.5,0.1,5.5,5.6,5.7c1,0,2,0,3,0c71,0,142.1,0,213.1,0c1.2,0,2.5-0.1,3.7,0c3.1,0.3,4.2-1.1,4.8-4
			c2.1-10.1,1.6-20.3,1-30.4c-0.6-10.1-0.9-10.1-11.2-10.1c-53.3,0-106.7,0-160,0c-7.2,0-7.3,0-7.3-6.9c0-30.5,0-61.1,0-91.6
			c0-6.8,0-6.8,7.3-6.9c23.8,0,47.7,0,71.5,0c21.4,0,42.8,0,64.2,0c5.6,0,5.6-0.1,6.4-5.3c1.6-10.6,1.7-21.2,0-31.8
			c-0.8-5.5-0.8-5.5-6.8-5.6c-1.7,0-3.4,0-5.2,0c-43.5,0-87,0-130.5,0c-6.8,0-6.9,0-6.9-6.5c0-29.4,0-58.7,0-88.1
			c0-6.4,0.1-6.4,7-6.4c24.1,0,48.2,0,72.3,0c29.2,0,58.5,0,87.7,0c5.6,0,5.9-0.1,6.5-5.2c1.5-11.1,1.3-22.2,0.1-33.3
			c-0.6-5.4-0.9-5.5-6.3-5.5c-58.3,0-116.5-0.1-174.7,0.3c-14.4,0.1-28.9,1.2-43.1,4.6c-5.9,1.4-5.8,1.4-5.7,6.8
			C1389.3,437.1,1391,490.3,1391.9,543.6z M1978.4,543.5c0.2,0,0.3,0,0.5,0c0,9,0,18,0,27c0.2,43.6,0.5,87.1,0.7,130.7
			c0,9.4-0.5,8.6,8.6,8.6c71,0,142.1,0,213.1,0c8.3,0,8.3-0.1,9.3-8.2c1.1-9,1-17.9,0.1-26.9c-0.9-9.3-0.9-9.4-10.4-9.4
			c-52.8,0-105.7,0-158.5,0c-2,0-3.9,0-5.9,0c-2.3,0-3.7-0.9-3.7-3.3c0-1.7,0-3.3,0-5c0-27.9,0-55.9,0-83.8c0-2.8,0.2-5.7,0-8.5
			c-0.3-3.9,1.6-5.1,5.2-4.8c1.7,0.1,3.4,0,5.2,0c43,0,86,0,129,0c2.2,0,4.4,0,6.6-0.1c1.6,0,2.7-0.7,3-2.4c2.1-12.5,2.1-25,0-37.5
			c-0.3-2.1-1.6-2.8-3.5-2.8c-2,0-3.9,0-5.9,0c-43.5,0-87,0-130.5,0c-2,0-3.9,0-5.9,0c-2.1,0-3.3-0.8-3.2-2.9c0-1.7,0-3.3,0-5
			c0-28.2,0-56.3,0-84.5c0-9.7-0.9-8.6,9.2-8.6c51.9,0,103.7,0,155.6,0c8.7,0,8.6,0,9.3-8.6c0.8-9.2,0.6-18.4-0.1-27.7
			c-0.6-7.8-0.6-7.8-8.6-7.8c-54.3,0-108.6-0.1-162.9,0c-17,0-33.9,0.9-50.6,4.3c-9.8,2-8.2,1.2-8.1,9.4c0.4,24.9,1,49.7,1.4,74.6
			C1977.9,488.1,1978.1,515.8,1978.4,543.5z M1799.1,362.4c-21.5,0.8-37.1,2.5-52.2,6.9c-41.7,12.4-69.2,37.3-73.7,80.8
			c-3.3,31.1,7,57.3,33.4,76.8c14.2,10.5,30.2,17.6,46.7,23.8c16.7,6.3,33.5,12.3,50.2,18.5c13.1,4.9,25.9,10.2,37.2,18.5
			c8.4,6.1,15.3,13.4,18,23.6c4.1,15.6,2.2,30.5-6.8,44.3c-2.4,3.7-5.6,6.4-10,8c-8.3,3-16.7,5.6-25.5,6.6
			c-45.9,5.1-90.2,0.5-131.5-21.1c-3.3-1.7-4.7-0.9-6.4,1.8c-6.9,11.1-11.2,23.1-13.6,35.8c-0.7,3.8,0.4,6,4,8
			c12.7,7,26.3,11.8,40.3,15.3c31.7,7.9,63.9,10.3,96.4,7c19.6-2,38.7-6.4,56.4-15.2c18.9-9.4,33.6-22.9,42.8-41.6
			c4.8-9.7,7.4-20,8.7-30.7c3.8-32.5-5.7-59.8-33.7-80c-14.3-10.3-30-18-46.5-24.2c-20.3-7.7-40.8-15-61.2-22.6
			c-10.6-4-20.4-9.2-29.1-16.4c-19.9-16.4-19-45.8-9.4-61.2c3.5-5.7,8.1-9.6,15.2-11.2c19.8-4.4,39.7-5.4,60-4.1
			c23.8,1.5,46.5,6.9,67.9,17c4.9,2.3,5,2.4,8.2-1.9c7.1-9.5,11.4-20.3,14.5-31.6c1.9-6.8,1.9-6.9-4.8-10.1
			C1862.8,367.8,1828.8,362.2,1799.1,362.4z M2407.2,562.9c0-45.7,0-91.4,0-137.1c0-1.9,0.1-3.8,0-5.7c-0.1-3.1,1.5-4.2,4.5-4
			c1.7,0.1,3.4,0,5.2,0c31.9,0,63.9,0,95.8,0c6.4,0,6.6-0.1,7.4-6.1c1.3-9.6,1.3-19.3,0.4-29c-0.9-8.8-0.8-8.9-10-8.9
			c-87.2,0-174.4,0-261.7,0c-1.5,0-2.9,0.1-4.4,0c-2.6-0.1-4,0.7-4.5,3.5c-1.9,12.5-1.9,25,0,37.5c0.4,2.4,1.7,3.2,4,3.1
			c1.7-0.1,3.4,0,5.2,0c31.7,0,63.4,0,95.1,0c8.4,0,7.8-0.6,7.9,7.8c0.4,23.4,1,46.9,1.3,70.3c0.6,52.5,1.2,105.1,1.7,157.6
			c0.2,17.8,0.1,35.5,0.1,53.3c0,6,0.1,6.1,5.9,6.4c12.5,0.5,25,0.7,37.5-1.3c8.6-1.4,8.7-1.3,8.7-9.6
			C2407.2,654.7,2407.2,608.8,2407.2,562.9z M2273.9,787.7c1,2.2,0.6,4.3,0.7,6.3c0.3,25.6,0.6,51.1,0.8,76.7
			c0.1,9.8,0.5,10.1,11,9.1c1.5-0.2,2.9-0.3,4.4-0.5c1.7-0.2,2.5-1.3,2.6-2.9c0-1.9,0.1-3.8,0.1-5.7c0-31.9,0-63.9,0-95.8
			c0-13.7,0-13.4-14.5-15.3c-5.3-0.7-8,0.8-10.6,5c-9.6,15.2-19.5,30.1-29.3,45.1c-1.4,2.1-2.3,4.6-5.2,6c-2.7-4.1-5.2-7.8-7.7-11.6
			c-8.8-13.4-17.5-26.8-26.3-40.2c-1.6-2.4-2.9-5.2-6.6-4.7c-5.3,0.7-10.7,0.8-16,2.1c-2.7,0.7-3.6,2-3.5,4.5c0.1,1.6,0,3.3,0.1,5
			c0.4,32.4,0.8,64.8,1.4,97.2c0.1,3.7-1,8.7,2.2,11.2c3.9,1,7.9,0.7,12,0.4c2.8-0.2,3.8-2,3.6-4.6c-0.1-1.6,0-3.3,0-5
			c0-25.8,0-51.6,0-77.4c0-1.6-0.8-3.6,1.4-5.2c1.6,2.4,3.1,4.5,4.6,6.7c8.7,13.2,17.3,26.4,26.1,39.5c5.2,7.8,12.7,7.8,17.8,0.1
			c9-13.6,17.8-27.2,26.7-40.8C2270.8,791.2,2271.5,789.2,2273.9,787.7z M2366.6,759.8c-11.8,0-11.7,0-15.9,10.9
			c-12.4,32.1-24.8,64.3-37.2,96.4c-4.3,11.2-3.7,12.2,8.9,13.5c5.2,0.5,5.7,0.3,7.5-4.4c3-8,6-16,8.7-24.1c1.2-3.6,3.1-4.7,6.9-4.7
			c14,0.2,28,0.2,42,0c3.5,0,5.3,1.1,6.5,4.3c2.6,7.4,5.5,14.7,8.3,22c3,7.8,3.3,8,11.5,6.5c0.7-0.1,1.4-0.4,2.1-0.5
			c8.4-1.9,8.5-1.9,5.5-9.6c-12.7-33-25.5-66-38.2-99.1C2378.8,759.8,2378.8,759.8,2366.6,759.8z M2072.8,812.4c0.4,0,0,7.8,0.5,7.8
			c0,17.5,0,35,0,52.5c0,6.3,0.1,6.3,6.3,6.4c10.3,0,20.6,0,30.9,0c12.8,0,25.5-0.1,38.3,0.1c3.8,0.1,5.4-1.4,5.5-4.9
			c0-0.9,0-1.9,0-2.8c0-7.7-0.1-7.8-8.2-7.8c-16.5,0-32.9,0-49.4,0c-5.3,0-5.4-0.1-5.4-5c-0.1-9.2,0.1-18.5-0.1-27.7
			c0-2.9,0.9-4.5,4.2-4.3c1.5,0.1,3,0,4.4,0c12.8,0,25.5,0,38.3,0c1.9,0,4.7,0.8,5.3-1.3c1.3-4.1,1.1-8.4,0.1-12.6
			c-0.2-0.9-1.4-1.3-2.4-1.3c-1.7,0-3.4,0-5.2,0c-13,0-26,0-39,0c-5.5,0-5.6-0.1-5.6-5.6c-0.1-7.8,0-15.6,0-23.4
			c0-6.1,0.1-6.2,6.7-6.2c16,0,31.9,0,47.9,0c6.5,0,6.7-0.3,6.9-6.2c0-0.7,0-1.4,0-2.1c-0.1-6.9-0.3-7.2-7.4-7.2
			c-12.5,0-25,0.1-37.6,0c-9.6-0.1-19.1,0.1-28.7,0.9c-7.3,0.7-7.3,0.7-7.3,7.6C2072,786.1,2072.8,795.4,2072.8,812.4z M1897.5,882
			c7.4,0.3,16.6-1,25.3-4.5c12.9-5.2,20.1-14.5,21.2-28.2c1.1-13.3-4.7-22.8-16.4-29.4c-5.3-3-10.9-5.3-16.7-7.4
			c-5.8-2.1-11.5-4.2-17.2-6.3c-3.9-1.5-7.6-3.5-10.5-6.5c-5-5.2-5.6-11.3-3.5-17.9c2-6.2,7.3-7.2,12.9-7.6
			c11.6-0.9,23.1-0.6,34.1,3.7c7.1,2.8,7.1,2.7,10.2-3.8c0.6-1.3,1-2.7,1.6-4c1.4-3.2,0.6-5.2-2.9-6.6c-8.5-3.4-17.2-5.6-26.4-6.1
			c-11.5-0.7-22.5,0.8-32.9,6c-20.2,10.3-23.5,40.5-2.5,53.2c4.6,2.8,9.4,5.1,14.5,6.9c6.6,2.5,13.3,4.9,20,7.4
			c3.9,1.4,7.6,3.4,10.9,5.9c6.2,4.7,7,11,5.6,18c-1.3,6.4-6,8.9-11.9,9.9c-14.9,2.4-29.6,1.6-43.3-4.4c-7-3.1-7.5-3.8-10.9,4.5
			c-0.3,0.7-0.4,1.4-0.6,2c-1.8,5.9-1.8,6.1,3.8,8.7C1872.5,880.1,1883.8,881.9,1897.5,882z M1746.6,882c7.5,0.3,16.7-1,25.5-4.5
			c12.4-4.9,19.7-13.7,21.3-26.6c1.6-13.7-3.6-24-16-30.9c-5.3-3-10.9-5.4-16.7-7.5c-6-2.2-12-4.3-17.9-6.6c-4.4-1.7-8.4-4-11.3-7.7
			c-4.1-5.2-4.1-10.9-2.2-16.8c1.9-5.8,7.1-6.8,12.3-7.2c11.3-0.9,22.6-0.7,33.4,3.2c8.5,3.1,9,2.9,12.2-5.5c0.3-0.7,0.4-1.4,0.7-2
			c1.8-3.5,0.1-5.2-3.2-6.5c-8.5-3.4-17.2-5.6-26.4-6.1c-11.5-0.7-22.5,0.8-32.8,6.1c-20.6,10.6-22.6,40.9-3,52.7
			c4.8,2.9,9.8,5.4,15.1,7.3c6.6,2.5,13.3,4.9,19.9,7.4c3.7,1.4,7.1,3.2,10.3,5.4c6.7,4.7,7.5,11.2,6.2,18.4
			c-1.2,6.8-6.5,9.1-12.6,10c-14.6,2.2-28.9,1.1-42.6-4.4c-8-3.2-8.2-3.2-11.1,4.9c-0.3,0.9-0.6,1.8-0.9,2.7
			c-1.4,3.6-0.1,5.7,3.5,7.2C1721.3,879.7,1732.7,881.9,1746.6,882z M2474.7,882c8.3,0.3,17.3-1.1,25.8-4.4
			c12.8-4.9,20-14.2,21.4-27.4c1.5-13.4-4.1-23.5-16.2-30.2c-4.3-2.4-8.7-4.5-13.3-6.1c-6.4-2.3-12.9-4.7-19.3-7
			c-3.9-1.4-7.6-3.3-10.8-6c-5.3-4.4-7.2-12.3-4.9-18.9c2.2-6.4,7.8-7.4,13.5-7.8c11.6-0.8,23.1-0.5,34.1,4c6.3,2.6,6.8,2.3,9.7-4
			c0.6-1.3,0.9-2.7,1.6-4c1.7-3.3,0.5-5.2-2.9-6.6c-9.1-3.8-18.7-5.9-28.6-6.3c-11-0.5-21.5,1.3-31.3,6.4
			c-20.1,10.4-22.1,41.1-2,52.8c4.9,2.8,9.9,5.2,15.2,7.2c6.6,2.5,13.3,4.9,19.9,7.4c3.7,1.4,7.1,3.3,10.2,5.6
			c6.3,4.7,7,11.1,5.7,18c-1.2,6.8-6.5,9.1-12.7,10c-14.9,2.2-29.4,1-43.4-4.7c-7.2-2.9-7.3-3-10.1,4.3c-0.3,0.7-0.5,1.3-0.7,2
			c-1.9,6-1.6,6.8,4.2,9.2C2450.8,880.1,2462,882.1,2474.7,882z M2015.7,827.5L2015.7,827.5c0-2.1,0-4.3,0-6.4c0-13.3,0-26.5,0-39.8
			c0-5,0.2-5,5.4-5.2c1.5,0,2.9,0,4.4,0c7.6,0,15.2,0,22.8,0c6.5,0,6.9-0.5,7.1-6.9c0.3-8.1-0.3-8.7-8.9-8.7c-27.3,0-54.5,0-81.8,0
			c-1.5,0-3-0.1-4.4,0c-3.5,0.3-4.2,1.5-4.2,7.5c0,6.5,0.6,7.7,4.4,8c2,0.2,3.9,0.1,5.9,0.1c8.3,0,16.7,0.1,25.1,0
			c3.1,0,4.6,1.2,4.4,4.2c0,1.2,0.1,2.4,0.1,3.5c1,28.1,0.8,56.3,1,84.5c0.1,12,0,12,12.5,11.1c5.8-0.5,6.1-0.6,6.1-6.4
			C2015.7,857.8,2015.7,842.6,2015.7,827.5z M1834.9,819.5c0-16.8,0.1-33.6,0-50.4c-0.1-11.3,2.4-10.5-11.3-8.9
			c-8.2,1-8.2,1.3-8.1,9.5c0.4,33.1,0.9,66.2,1.3,99.3c0.1,11.1,0.1,11.1,11.7,10.4c6.3-0.4,6.4-0.4,6.5-6.7
			C1834.9,854.9,1834.9,837.2,1834.9,819.5z"/>
		<path class="st1" d="M627.2,228.9c59.9,43.4,119.1,86.3,178.3,129.2c-3.4,4.4-166.7,123.5-178.3,130.2c-2-1.9-1.1-4.4-1.2-6.5
			c-0.1-19.2,0-38.4,0-57.5c0-1.4,0-2.8,0-4.3c-0.2-4.8-0.6-5.3-5.6-5c-16.5,1-32.9,2.6-48.6,7.4c-73,22.6-120.1,69.7-135.9,141.8
			c-14.8,67.4,5.4,126.5,57.1,174.7c29.3,27.4,64.7,43.7,105,49c54.1,7,103.6-5,146.9-37.6c41.8-31.4,67.1-72.7,73.6-123.5
			c7.7-60.1-10.9-112.1-54.4-155.9c-1.9-1.9-4.2-3.3-5.7-4.4c0.6-3.2,2.4-3.8,3.7-4.8c27.9-20.2,55.7-40.5,83.6-60.7
			c1-0.7,2.1-1.3,2.9-2.1c2.4-2.2,4.3-1.5,6.1,0.8c0.6,0.8,1.3,1.4,1.9,2.1c40.8,43.7,67.4,94.5,76.2,152.6
			c15.3,100.4-13.8,187.8-88,260.4c-39.1,38.3-86.3,63.8-140.2,77.5c-34.3,8.7-69.1,11.4-104.4,8.6c-67.6-5.5-127.2-29.6-178.2-72.4
			c-55.2-46.1-89.2-104.3-102.4-173.7c-4.8-25.3-6.1-50.9-3.8-76.4c5.5-63.4,29.2-119.9,71.9-168.6c48.3-55,109.6-88.9,183-102.3
			c15.7-2.9,31.6-4.2,47.6-4.7c8.4-0.3,7.8,0.3,7.8-8c0-18.9,0-37.9,0-56.8C626.1,235.3,625.6,232.7,627.2,228.9z"/>
		<path class="st2" d="M1230.7,560.1c38.9,47.9,77,94.8,115.3,141.9c-2.4,2.5-5.4,2.8-8,3.5c-14,3.7-28.2,6.1-42.8,6.5
			c-4.9,0.1-8-1.2-11-5.1c-34.6-44.8-69.5-89.5-104-134.3c-3.3-4.3-6.6-6.1-12.2-5.9c-10.6,0.4-21.1,0.1-31.7,0.1
			c-6.5,0-6.5,0.1-6.5,6.2c0,21.3,0,42.6,0,63.9c0,21.8,0,43.6,0,65.3c0,6.5-0.1,6.5-6.8,7.6c-12.9,2.1-25.9,2.2-39,1.6
			c-6.3-0.3-6.4-0.4-6.4-6.7c-0.3-26.8-0.6-53.5-0.8-80.3c-0.3-34.8-0.3-69.6-0.8-104.4c-0.6-45.2-1.6-90.4-2.4-135.6
			c-0.1-8.3-0.1-8.3,8.3-9.7c41.3-7.2,82.8-10.2,124.7-8.5c26,1.1,51.2,6.6,73.6,20.2c26.3,16,40.3,39.3,42.9,69.1
			c1.5,16.8-0.1,33.1-6.6,48.8c-7.9,19.1-22,32.8-40.8,42.2C1262,553.5,1247.3,557.3,1230.7,560.1z M1129.7,469
			c0,16.8,0,33.6,0,50.4c0,6,0.1,6.1,5.9,6.1c21.4,0,42.8,0.2,64.1-0.3c15.2-0.3,30.3-2.6,44.9-7c6-1.8,10.2-5.2,13.5-10.1
			c6.6-9.7,8.7-20.5,9.6-31.7c2.5-29.5-9.2-50.6-41.1-60.7c-12.5-4-25.3-5.6-38.4-5.6c-17.2,0-34.4,0-51.5,1.7c-7,0.7-7,0.5-7,7.6
			C1129.7,435.8,1129.7,452.4,1129.7,469z"/>
		<path class="st2" d="M1391.9,543.6c-0.9-53.3-2.6-106.5-3.3-159.8c-0.1-5.4-0.1-5.4,5.7-6.8c14.2-3.4,28.7-4.5,43.1-4.6
			c58.2-0.4,116.5-0.3,174.7-0.3c5.4,0,5.7,0.1,6.3,5.5c1.3,11.1,1.4,22.2-0.1,33.3c-0.7,5.1-0.9,5.2-6.5,5.2c-29.2,0-58.5,0-87.7,0
			c-24.1,0-48.2,0-72.3,0c-6.9,0-7,0-7,6.4c0,29.4,0,58.7,0,88.1c0,6.5,0.1,6.5,6.9,6.5c43.5,0,87,0,130.5,0c1.7,0,3.4,0,5.2,0
			c6,0.1,6,0.1,6.8,5.6c1.6,10.6,1.6,21.2,0,31.8c-0.8,5.2-0.7,5.3-6.4,5.3c-21.4,0-42.8,0-64.2,0c-23.8,0-47.7,0-71.5,0
			c-7.3,0-7.3,0-7.3,6.9c0,30.5,0,61.1,0,91.6c0,6.9,0,6.9,7.3,6.9c53.3,0,106.7,0,160,0c10.3,0,10.5,0,11.2,10.1s1.1,20.3-1,30.4
			c-0.6,2.8-1.7,4.3-4.8,4c-1.2-0.1-2.5,0-3.7,0c-71,0-142.1,0-213.1,0c-1,0-2,0-3,0c-5.5-0.1-5.6-0.2-5.6-5.7
			c-0.2-24.6-0.3-49.3-0.4-73.9C1391.9,601.4,1391.9,572.5,1391.9,543.6z"/>
		<path class="st2" d="M1978.4,543.5c-0.3-27.7-0.5-55.4-0.9-83.1c-0.4-24.9-1-49.7-1.4-74.6c-0.1-8.1-1.8-7.4,8.1-9.4
			c16.7-3.4,33.6-4.3,50.6-4.3c54.3-0.1,108.6,0,162.9,0c8,0,8,0,8.6,7.8c0.7,9.2,0.9,18.4,0.1,27.7c-0.8,8.6-0.6,8.6-9.3,8.6
			c-51.9,0-103.7,0-155.6,0c-10.1,0-9.2-1.1-9.2,8.6c0,28.2,0,56.3,0,84.5c0,1.7,0,3.3,0,5c0,2.1,1.2,2.9,3.2,2.9s3.9,0,5.9,0
			c43.5,0,87,0,130.5,0c2,0,3.9,0,5.9,0s3.2,0.7,3.5,2.8c2.1,12.5,2.1,25,0,37.5c-0.3,1.7-1.4,2.4-3,2.4c-2.2,0.1-4.4,0.1-6.6,0.1
			c-43,0-86,0-129,0c-1.7,0-3.5,0.1-5.2,0c-3.6-0.3-5.6,0.9-5.2,4.8c0.2,2.8,0,5.7,0,8.5c0,27.9,0,55.9,0,83.8c0,1.7,0.1,3.3,0,5
			c-0.1,2.4,1.3,3.3,3.7,3.3c2,0,3.9,0,5.9,0c52.8,0,105.7,0,158.5,0c9.5,0,9.5,0.1,10.4,9.4c0.8,9,0.9,18-0.1,26.9
			c-1,8.1-1,8.2-9.3,8.2c-71,0-142.1,0-213.1,0c-9.1,0-8.6,0.7-8.6-8.6c-0.2-43.6-0.5-87.1-0.7-130.7c0-9,0-18,0-27
			C1978.8,543.5,1978.6,543.5,1978.4,543.5z"/>
		<path class="st2" d="M1799.1,362.4c29.7-0.3,63.7,5.4,95.6,20.8c6.7,3.3,6.7,3.3,4.8,10.1c-3.1,11.3-7.4,22.1-14.5,31.6
			c-3.2,4.3-3.3,4.3-8.2,1.9c-21.4-10.2-44.1-15.6-67.9-17c-20.2-1.2-40.2-0.3-60,4.1c-7.1,1.6-11.7,5.5-15.2,11.2
			c-9.6,15.4-10.5,44.7,9.4,61.2c8.7,7.2,18.6,12.4,29.1,16.4c20.4,7.6,40.9,14.9,61.2,22.6c16.5,6.2,32.2,13.9,46.5,24.2
			c27.9,20.2,37.5,47.5,33.7,80c-1.2,10.6-3.9,21-8.7,30.7c-9.2,18.6-23.9,32.2-42.8,41.6c-17.7,8.8-36.8,13.2-56.4,15.2
			c-32.6,3.3-64.8,0.9-96.4-7c-14.1-3.5-27.6-8.3-40.3-15.3c-3.6-2-4.7-4.2-4-8c2.4-12.7,6.8-24.7,13.6-35.8
			c1.7-2.7,3.1-3.5,6.4-1.8c41.3,21.6,85.6,26.2,131.5,21.1c8.8-1,17.2-3.6,25.5-6.6c4.4-1.6,7.6-4.2,10-8
			c8.9-13.8,10.9-28.7,6.8-44.3c-2.7-10.1-9.6-17.4-18-23.6c-11.3-8.3-24.1-13.6-37.2-18.5c-16.7-6.3-33.5-12.3-50.2-18.5
			c-16.5-6.2-32.5-13.3-46.7-23.8c-26.4-19.5-36.6-45.8-33.4-76.8c4.6-43.5,32-68.5,73.7-80.8C1762,364.9,1777.6,363.2,1799.1,362.4
			z"/>
		<path class="st2" d="M2407.2,562.9c0,45.9,0,91.8,0,137.8c0,8.3,0,8.2-8.7,9.6c-12.4,2-25,1.8-37.5,1.3c-5.8-0.3-5.9-0.4-5.9-6.4
			c-0.1-17.8,0-35.5-0.1-53.3c-0.5-52.5-1-105.1-1.7-157.6c-0.3-23.4-0.9-46.9-1.3-70.3c-0.1-8.4,0.4-7.8-7.9-7.8
			c-31.7,0-63.4,0-95.1,0c-1.7,0-3.4-0.1-5.2,0c-2.3,0.1-3.6-0.7-4-3.1c-2-12.5-2-25,0-37.5c0.4-2.7,1.9-3.6,4.5-3.5
			c1.5,0.1,2.9,0,4.4,0c87.2,0,174.4,0,261.7,0c9.2,0,9.1,0.1,10,8.9c1,9.7,1,19.4-0.4,29c-0.8,6-1,6.1-7.4,6.1
			c-31.9,0-63.9,0-95.8,0c-1.7,0-3.4,0.1-5.2,0c-3-0.2-4.7,0.9-4.5,4c0.1,1.9,0,3.8,0,5.7C2407.2,471.5,2407.2,517.2,2407.2,562.9z"
			/>
		<path class="st2" d="M2366.6,759.8c12.2,0,12.2,0,16.5,11.1c12.7,33,25.5,66,38.2,99.1c3,7.8,3,7.8-5.5,9.6
			c-0.7,0.2-1.4,0.4-2.1,0.5c-8.2,1.6-8.6,1.4-11.5-6.5c-2.8-7.3-5.7-14.6-8.3-22c-1.1-3.2-2.9-4.4-6.5-4.3c-14,0.2-28,0.2-42,0
			c-3.8,0-5.7,1.1-6.9,4.7c-2.6,8.1-5.7,16.1-8.7,24.1c-1.8,4.7-2.3,5-7.5,4.4c-12.6-1.3-13.2-2.3-8.9-13.5
			c12.4-32.1,24.8-64.3,37.2-96.4C2354.8,759.9,2354.8,759.9,2366.6,759.8z M2386.5,832.2c-6.9-18.3-13.5-35.6-20.1-52.9
			c-7.7,17.4-14.4,34.8-20.3,52.9C2359.9,832.2,2372.6,832.2,2386.5,832.2z"/>
		<path class="st2" d="M2072,769.1c0-6.9,0-6.9,7.3-7.6c9.5-0.9,19.1-1,28.7-0.9c12.5,0.1,25,0,37.6,0c7.1,0,7.3,0.3,7.4,7.2
			c0,0.7,0,1.4,0,2.1c-0.2,5.9-0.4,6.2-6.9,6.2c-16,0-31.9,0-47.9,0c-6.6,0-6.6,0.1-6.7,6.2c-0.1,7.8-0.1,15.6,0,23.4
			c0,5.5,0.1,5.6,5.6,5.6c13,0.1,26,0,39,0c1.7,0,3.4,0,5.2,0c1,0,2.2,0.3,2.4,1.3c1,4.2,1.3,8.5-0.1,12.6c-0.7,2-3.4,1.3-5.3,1.3
			c-12.8,0-25.5,0-38.3,0c-1.5,0-2.9,0.1-4.4,0c-3.3-0.2-4.2,1.3-4.2,4.3c0.1,9.2,0,18.5,0.1,27.7c0,4.9,0.2,5,5.4,5
			c16.5,0.1,32.9,0,49.4,0c8.1,0,8.2,0.2,8.2,7.8c0,0.9,0,1.9,0,2.8c-0.1,3.5-1.6,4.9-5.5,4.9c-12.8-0.2-25.5-0.1-38.3-0.1
			c-10.3,0-20.6,0-30.9,0c-6.2,0-6.3-0.1-6.3-6.4c0-17.5,0-35,0-52.5C2072.9,820.2,2072,786.1,2072,769.1z"/>
		<path class="st2" d="M1897.5,882c-13.8-0.1-25.1-1.9-35.7-6.7c-5.6-2.5-5.7-2.7-3.8-8.7c0.2-0.7,0.3-1.4,0.6-2
			c3.3-8.2,3.9-7.5,10.9-4.5c13.8,6,28.5,6.8,43.3,4.4c5.9-1,10.7-3.4,11.9-9.9c1.4-7,0.5-13.3-5.6-18c-3.3-2.5-7-4.4-10.9-5.9
			c-6.7-2.4-13.3-4.9-20-7.4c-5.1-1.9-9.9-4.1-14.5-6.9c-20.9-12.7-17.7-42.9,2.5-53.2c10.3-5.2,21.4-6.7,32.9-6
			c9.1,0.6,17.9,2.8,26.4,6.1c3.5,1.4,4.4,3.4,2.9,6.6c-0.6,1.3-1,2.7-1.6,4c-3.1,6.5-3.1,6.6-10.2,3.8c-11-4.4-22.5-4.6-34.1-3.7
			c-5.5,0.4-10.9,1.4-12.9,7.6c-2.1,6.5-1.5,12.7,3.5,17.9c2.9,3,6.5,5,10.5,6.5c5.7,2.2,11.4,4.3,17.2,6.3
			c5.8,2.1,11.4,4.4,16.7,7.4c11.7,6.6,17.5,16,16.4,29.4c-1.1,13.7-8.3,23-21.2,28.2C1914.2,881,1904.9,882.3,1897.5,882z"/>
		<path class="st2" d="M1746.6,882c-13.9-0.1-25.3-2.3-36.3-7c-3.6-1.5-4.9-3.7-3.5-7.2c0.3-0.9,0.6-1.8,0.9-2.7
			c2.9-8.1,3.1-8,11.1-4.9c13.7,5.5,28.1,6.5,42.6,4.4c6.1-0.9,11.4-3.2,12.6-10c1.3-7.2,0.5-13.7-6.2-18.4
			c-3.2-2.2-6.6-4.1-10.3-5.4c-6.6-2.4-13.3-4.9-19.9-7.4c-5.3-2-10.3-4.4-15.1-7.3c-19.6-11.9-17.7-42.1,3-52.7
			c10.3-5.3,21.4-6.8,32.8-6.1c9.1,0.5,17.9,2.7,26.4,6.1c3.2,1.3,4.9,3,3.2,6.5c-0.3,0.6-0.4,1.4-0.7,2c-3.2,8.4-3.7,8.6-12.2,5.5
			c-10.8-4-22.1-4.1-33.4-3.2c-5.2,0.4-10.4,1.4-12.3,7.2c-2,5.9-1.9,11.7,2.2,16.8c2.9,3.7,6.9,6,11.3,7.7
			c5.9,2.3,11.9,4.4,17.9,6.6c5.8,2.1,11.3,4.5,16.7,7.5c12.4,6.9,17.7,17.3,16,30.9c-1.6,13-8.9,21.8-21.3,26.6
			C1763.3,881,1754.1,882.3,1746.6,882z"/>
		<path class="st2" d="M2474.7,882c-12.6,0.1-23.9-1.9-34.6-6.4c-5.8-2.5-6.1-3.2-4.2-9.2c0.2-0.7,0.4-1.4,0.7-2
			c2.8-7.3,2.9-7.2,10.1-4.3c14,5.7,28.5,6.8,43.4,4.7c6.1-0.9,11.4-3.2,12.7-10c1.2-6.9,0.5-13.2-5.7-18c-3.1-2.3-6.5-4.2-10.2-5.6
			c-6.6-2.5-13.3-4.9-19.9-7.4c-5.3-2-10.3-4.3-15.2-7.2c-20.1-11.7-18.1-42.4,2-52.8c9.8-5.1,20.3-6.9,31.3-6.4
			c9.9,0.4,19.4,2.5,28.6,6.3c3.4,1.4,4.6,3.3,2.9,6.6c-0.6,1.3-1,2.7-1.6,4c-2.9,6.2-3.4,6.5-9.7,4c-11-4.5-22.4-4.8-34.1-4
			c-5.8,0.4-11.3,1.4-13.5,7.8c-2.3,6.6-0.4,14.5,4.9,18.9c3.2,2.6,6.9,4.5,10.8,6c6.4,2.3,12.8,4.7,19.3,7c4.6,1.7,9,3.7,13.3,6.1
			c12.1,6.8,17.6,16.8,16.2,30.2c-1.4,13.2-8.7,22.4-21.4,27.4C2491.9,880.9,2483,882.3,2474.7,882z"/>
		<path class="st2" d="M2015.7,827.5c0,15.1,0,30.3,0,45.4c0,5.8-0.3,6-6.1,6.4c-12.5,1-12.4,1-12.5-11.1c-0.2-28.2,0-56.3-1-84.5
			c0-1.2-0.2-2.4-0.1-3.5c0.1-3-1.3-4.2-4.4-4.2c-8.3,0.1-16.7,0-25.1,0c-2,0-3.9,0.1-5.9-0.1c-3.8-0.3-4.4-1.5-4.4-8
			c0-6,0.6-7.2,4.2-7.5c1.5-0.1,3,0,4.4,0c27.3,0,54.5,0,81.8,0c8.6,0,9.2,0.6,8.9,8.7c-0.2,6.4-0.6,6.8-7.1,6.9
			c-7.6,0-15.2,0-22.8,0c-1.5,0-2.9,0-4.4,0c-5.2,0.2-5.4,0.2-5.4,5.2c-0.1,13.3,0,26.5,0,39.8
			C2015.7,823.2,2015.7,825.4,2015.7,827.5L2015.7,827.5z"/>
		<path class="st2" d="M1834.9,819.5c0,17.7,0,35.5,0,53.2c0,6.3-0.2,6.3-6.5,6.7c-11.6,0.7-11.6,0.7-11.7-10.4
			c-0.4-33.1-0.8-66.2-1.3-99.3c-0.1-8.1-0.1-8.5,8.1-9.5c13.7-1.6,11.2-2.4,11.3,8.9C1835,785.9,1834.9,802.7,1834.9,819.5z"/>
		<path class="st0" d="M1129.7,469c0-16.6,0-33.1,0-49.7c0-7.1,0.1-6.9,7-7.6c17.1-1.6,34.3-1.7,51.5-1.7c13.1,0,25.9,1.7,38.4,5.6
			c31.9,10.1,43.5,31.2,41.1,60.7c-0.9,11.1-3,22-9.6,31.7c-3.4,5-7.5,8.3-13.5,10.1c-14.7,4.4-29.7,6.6-44.9,7
			c-21.4,0.5-42.7,0.2-64.1,0.3c-5.8,0-5.9-0.1-5.9-6.1C1129.7,502.6,1129.7,485.8,1129.7,469z"/>
		<path class="st0" d="M2386.5,832.2c-13.9,0-26.6,0-40.4,0c5.9-18.2,12.6-35.6,20.3-52.9C2373,796.6,2379.6,814,2386.5,832.2z"/>
	</g>
</g>
</svg>
