<?xml version="1.0" encoding="utf-8"?>
<!-- Generator: Adobe Illustrator 24.0.1, SVG Export Plug-In . SVG Version: 6.00 Build 0)  -->
<svg version="1.1" id="Camada_1" xmlns="http://www.w3.org/2000/svg" xmlns:xlink="http://www.w3.org/1999/xlink" x="0px" y="0px"
	 viewBox="0 0 1220.2 1350" style="enable-background:new 0 0 1220.2 1350;" xml:space="preserve">
<style type="text/css">
	.st0{fill:#FDEC04;}
	.st1{fill:#31AB86;}
	.st2{fill:#0E5782;}
	.st3{fill:#F69721;}
	.st4{fill:#9D9F9F;}
</style>
<g>
	<path class="st0" d="M516.2,1337c-124.6-70.7-200.8-187.6-282.4-298.8c-55.4-75.5-106.5-154.2-159.1-231.8
		c-32.7-48.3-34.6-97.9-2.2-147.2c44.1-67.2,108-112.3,174.9-153.6c28.5-17.6,58.1-33.5,89.4-45.8c28.3-11.1,48,2.1,45.6,33.1
		c-1.9,24.7-9,48.9-13.7,73.3c-33.7,176.3-38.5,351.8,13.6,525.8c18.9,63.1,45.6,122.5,88.5,173.4c21.9,26,46.8,48.2,81.2,56.2
		c21.6,5,2.3,10.2,0.2,15.3C540.4,1337,528.3,1337,516.2,1337z"/>
	<path class="st1" d="M1213.7,985.7c-28.6,50.5-75.4,77.3-126.7,99.4c-141.4,60.7-276.1,135.7-416.8,198
		c-71.6,31.7-123.3,25.3-166.8-23.4c-10.2-11.4-18.3-25-25.8-38.4c-45.8-81.5-81.7-166.7-91.6-260.8c-5-47.7,22.7-68.1,65.9-48.9
		c135.3,60.1,272.3,115.3,418.5,143.6c67,13,134.5,20,202.3,5.4c52.4-11.3,96.5-35.7,126.2-82c3.8-5.9,8.4-10.7,14.8-13.6
		C1213.7,971.9,1213.7,978.8,1213.7,985.7z"/>
	<path class="st2" d="M9.9,675.7c23.2-53.3,47.5-105.9,78.3-155.4c61.1-98.4,136.2-185.6,212.1-272.4
		c32.8-37.5,64.4-76.1,96.3-114.5c15.5-18.6,32.1-35.9,52.7-48.9C483.9,62.5,519,59,556.7,78.1c44.7,22.7,81.5,53.9,111,94.2
		c31.7,43.2,57,90,80.6,137.8c14.2,28.7,5.9,39.9-26,38.1C486.1,334.9,284.4,417.4,109,571c-49.7,43.5-80.1,98.1-79.3,166.4
		c-13.1,1.4-12.4-11.8-19.8-15.2C9.9,706.7,9.9,691.2,9.9,675.7z"/>
	<path class="st3" d="M562.7,14.3C650.1,52,733.6,97.6,819.2,138.9c80.5,38.9,160.7,78.6,240.4,119.2c70.9,36,86.2,78,72.8,141.3
		C1110.7,502,1081,601,1024.8,690.5c-6.7,10.6-11.5,25.5-27.3,23.9c-17.3-1.8-25.9-15.4-31.6-30.7C931,589.2,892.6,496.2,847.7,406
		c-51.1-102.7-106.1-203-186.2-286.8c-28.1-29.4-59.3-54.6-97.4-70.9c-29.7-12.7-60.2-10.3-94.6-6.9c11.8-17.2,29.7-17.6,41.6-27.2
		C528.3,14.3,545.5,14.3,562.7,14.3z"/>
	<path class="st4" d="M1120.5,284.8c32.6-5.5,49.2,7.5,58.7,32.2c16.7,43.1,21.4,88.7,23,134c5.4,148.8,1.9,297.6-3.8,446.3
		c-3.2,81.4-67.7,140.8-156.3,144.4c-85.2,3.5-167.6-12.1-247.1-42.7c-12.9-5-28-8.9-29-25.6c-1.1-17.8,9.2-31.3,23.6-40.4
		c24-15.2,48-30.3,73.1-43.6c105.9-56.3,176-143.2,220.8-253c32.2-78.8,64.8-157.2,79.7-241.8
		C1171.1,350.2,1163.2,313.3,1120.5,284.8z"/>
</g>
</svg>
